<svg width="115" height="44" xmlns="http://www.w3.org/2000/svg" preserveAspectRatio="xMidYMid meet" version="1.0">
 <metadata>Created by potrace 1.16, written by Peter Selinger 2001-2019</metadata>

 <g>
  <title>Layer 1</title>
  <text transform="matrix(1.15098 0 0 1.43442 -26.6257 -7.2634)" stroke="null" font-style="normal" font-weight="bold" xml:space="preserve" text-anchor="start" font-family="'Poppins'" font-size="12" stroke-width="0" id="svg_11" y="23.93153" x="54.64191" fill="#8a8ef9">TechMain</text>
  <path stroke="null" id="svg_12" d="m13.6254,32.40161c-8.28136,-5.91412 -11.24227,-9.65528 -11.26627,-14.23514c-0.02188,-4.1751 3.63321,-8.20469 7.42108,-8.18146c1.89149,0.01163 5.94886,1.54829 7.38558,2.79722c0.72391,0.62928 1.06679,0.56723 2.67849,-0.48475c4.38638,-2.86303 8.66972,-2.92312 11.4438,-0.16054c4.43357,4.41519 3.62639,9.68773 -2.32037,15.15677c-3.16164,2.90766 -10.06596,8.06602 -10.79615,8.06602c-0.22219,0 -2.26796,-1.33116 -4.54616,-2.95813l0,0z" stroke-width="0" fill="#8a8ef9"/>
 </g>
</svg>